<svg xmlns='http://www.w3.org/2000/svg' width='640' height='480'>
  <style>
    text { font-family: Arial, sans-serif; font-size: 14px; }
    .title { font-size: 18px; font-weight: bold; }
  </style>
  <rect x='0' y='0' width='640' height='480' fill='white'/>
  <line x1='60' y1='420' x2='580' y2='420' stroke='black'/>
  <line x1='60' y1='60' x2='60' y2='420' stroke='black'/>
  <text x='320.0' y='30.0' text-anchor='middle' class='title'>Scatter plot X vs L</text>
  <text x='320.0' y='460.0' text-anchor='middle'>X</text>
  <text x='20.0' y='240.0' text-anchor='middle' transform='rotate(-90 20.0,240.0)'>L</text>
  <circle cx="60.00" cy="321.46" r="3" fill="#1f77b4" />
<circle cx="66.58" cy="420.00" r="3" fill="#1f77b4" />
<circle cx="73.16" cy="282.99" r="3" fill="#1f77b4" />
<circle cx="79.75" cy="330.08" r="3" fill="#1f77b4" />
<circle cx="86.33" cy="256.93" r="3" fill="#1f77b4" />
<circle cx="92.91" cy="288.28" r="3" fill="#1f77b4" />
<circle cx="99.49" cy="237.19" r="3" fill="#1f77b4" />
<circle cx="106.08" cy="260.74" r="3" fill="#1f77b4" />
<circle cx="112.66" cy="221.30" r="3" fill="#1f77b4" />
<circle cx="119.24" cy="240.17" r="3" fill="#1f77b4" />
<circle cx="125.82" cy="208.00" r="3" fill="#1f77b4" />
<circle cx="132.41" cy="223.74" r="3" fill="#1f77b4" />
<circle cx="138.99" cy="196.56" r="3" fill="#1f77b4" />
<circle cx="145.57" cy="210.07" r="3" fill="#1f77b4" />
<circle cx="152.15" cy="186.53" r="3" fill="#1f77b4" />
<circle cx="158.73" cy="198.36" r="3" fill="#1f77b4" />
<circle cx="165.32" cy="177.59" r="3" fill="#1f77b4" />
<circle cx="171.90" cy="188.12" r="3" fill="#1f77b4" />
<circle cx="178.48" cy="169.53" r="3" fill="#1f77b4" />
<circle cx="185.06" cy="179.01" r="3" fill="#1f77b4" />
<circle cx="191.65" cy="162.20" r="3" fill="#1f77b4" />
<circle cx="198.23" cy="170.82" r="3" fill="#1f77b4" />
<circle cx="204.81" cy="155.47" r="3" fill="#1f77b4" />
<circle cx="211.39" cy="163.38" r="3" fill="#1f77b4" />
<circle cx="217.97" cy="149.25" r="3" fill="#1f77b4" />
<circle cx="224.56" cy="156.55" r="3" fill="#1f77b4" />
<circle cx="231.14" cy="143.47" r="3" fill="#1f77b4" />
<circle cx="237.72" cy="150.25" r="3" fill="#1f77b4" />
<circle cx="244.30" cy="138.07" r="3" fill="#1f77b4" />
<circle cx="250.89" cy="144.40" r="3" fill="#1f77b4" />
<circle cx="257.47" cy="133.01" r="3" fill="#1f77b4" />
<circle cx="264.05" cy="138.95" r="3" fill="#1f77b4" />
<circle cx="270.63" cy="128.24" r="3" fill="#1f77b4" />
<circle cx="277.22" cy="133.83" r="3" fill="#1f77b4" />
<circle cx="283.80" cy="123.73" r="3" fill="#1f77b4" />
<circle cx="290.38" cy="129.01" r="3" fill="#1f77b4" />
<circle cx="296.96" cy="119.46" r="3" fill="#1f77b4" />
<circle cx="303.54" cy="124.46" r="3" fill="#1f77b4" />
<circle cx="310.13" cy="115.40" r="3" fill="#1f77b4" />
<circle cx="316.71" cy="120.16" r="3" fill="#1f77b4" />
<circle cx="323.29" cy="111.53" r="3" fill="#1f77b4" />
<circle cx="329.87" cy="116.06" r="3" fill="#1f77b4" />
<circle cx="336.46" cy="107.84" r="3" fill="#1f77b4" />
<circle cx="343.04" cy="112.16" r="3" fill="#1f77b4" />
<circle cx="349.62" cy="104.31" r="3" fill="#1f77b4" />
<circle cx="356.20" cy="108.44" r="3" fill="#1f77b4" />
<circle cx="362.78" cy="100.92" r="3" fill="#1f77b4" />
<circle cx="369.37" cy="104.88" r="3" fill="#1f77b4" />
<circle cx="375.95" cy="97.67" r="3" fill="#1f77b4" />
<circle cx="382.53" cy="101.47" r="3" fill="#1f77b4" />
<circle cx="389.11" cy="94.54" r="3" fill="#1f77b4" />
<circle cx="395.70" cy="98.20" r="3" fill="#1f77b4" />
<circle cx="402.28" cy="91.53" r="3" fill="#1f77b4" />
<circle cx="408.86" cy="95.05" r="3" fill="#1f77b4" />
<circle cx="415.44" cy="88.62" r="3" fill="#1f77b4" />
<circle cx="422.03" cy="92.02" r="3" fill="#1f77b4" />
<circle cx="428.61" cy="85.81" r="3" fill="#1f77b4" />
<circle cx="435.19" cy="89.10" r="3" fill="#1f77b4" />
<circle cx="441.77" cy="83.10" r="3" fill="#1f77b4" />
<circle cx="448.35" cy="86.27" r="3" fill="#1f77b4" />
<circle cx="454.94" cy="80.47" r="3" fill="#1f77b4" />
<circle cx="461.52" cy="83.55" r="3" fill="#1f77b4" />
<circle cx="468.10" cy="77.93" r="3" fill="#1f77b4" />
<circle cx="474.68" cy="80.90" r="3" fill="#1f77b4" />
<circle cx="481.27" cy="75.46" r="3" fill="#1f77b4" />
<circle cx="487.85" cy="78.35" r="3" fill="#1f77b4" />
<circle cx="494.43" cy="73.06" r="3" fill="#1f77b4" />
<circle cx="501.01" cy="75.87" r="3" fill="#1f77b4" />
<circle cx="507.59" cy="70.74" r="3" fill="#1f77b4" />
<circle cx="514.18" cy="73.46" r="3" fill="#1f77b4" />
<circle cx="520.76" cy="68.47" r="3" fill="#1f77b4" />
<circle cx="527.34" cy="71.12" r="3" fill="#1f77b4" />
<circle cx="533.92" cy="66.27" r="3" fill="#1f77b4" />
<circle cx="540.51" cy="68.85" r="3" fill="#1f77b4" />
<circle cx="547.09" cy="64.13" r="3" fill="#1f77b4" />
<circle cx="553.67" cy="66.63" r="3" fill="#1f77b4" />
<circle cx="560.25" cy="62.04" r="3" fill="#1f77b4" />
<circle cx="566.84" cy="64.48" r="3" fill="#1f77b4" />
<circle cx="573.42" cy="60.00" r="3" fill="#1f77b4" />
<circle cx="580.00" cy="62.38" r="3" fill="#1f77b4" />
</svg>