<svg xmlns='http://www.w3.org/2000/svg' width='640' height='480'>
  <style>
    text { font-family: Arial, sans-serif; font-size: 14px; }
    .title { font-size: 18px; font-weight: bold; }
  </style>
  <rect x='0' y='0' width='640' height='480' fill='white'/>
  <line x1='60' y1='420' x2='580' y2='420' stroke='black'/>
  <line x1='60' y1='60' x2='60' y2='420' stroke='black'/>
  <text x='320.0' y='30.0' text-anchor='middle' class='title'>Scatter plot X vs R</text>
  <text x='320.0' y='460.0' text-anchor='middle'>X</text>
  <text x='20.0' y='240.0' text-anchor='middle' transform='rotate(-90 20.0,240.0)'>R</text>
  <circle cx="60.00" cy="244.33" r="3" fill="#1f77b4" />
<circle cx="66.58" cy="255.44" r="3" fill="#1f77b4" />
<circle cx="73.16" cy="266.59" r="3" fill="#1f77b4" />
<circle cx="79.75" cy="274.91" r="3" fill="#1f77b4" />
<circle cx="86.33" cy="284.50" r="3" fill="#1f77b4" />
<circle cx="92.91" cy="295.18" r="3" fill="#1f77b4" />
<circle cx="99.49" cy="302.15" r="3" fill="#1f77b4" />
<circle cx="106.08" cy="311.00" r="3" fill="#1f77b4" />
<circle cx="112.66" cy="319.86" r="3" fill="#1f77b4" />
<circle cx="119.24" cy="329.47" r="3" fill="#1f77b4" />
<circle cx="125.82" cy="333.66" r="3" fill="#1f77b4" />
<circle cx="132.41" cy="342.53" r="3" fill="#1f77b4" />
<circle cx="138.99" cy="350.31" r="3" fill="#1f77b4" />
<circle cx="145.57" cy="353.92" r="3" fill="#1f77b4" />
<circle cx="152.15" cy="363.07" r="3" fill="#1f77b4" />
<circle cx="158.73" cy="369.45" r="3" fill="#1f77b4" />
<circle cx="165.32" cy="373.52" r="3" fill="#1f77b4" />
<circle cx="171.90" cy="380.34" r="3" fill="#1f77b4" />
<circle cx="178.48" cy="382.93" r="3" fill="#1f77b4" />
<circle cx="185.06" cy="388.67" r="3" fill="#1f77b4" />
<circle cx="191.65" cy="392.89" r="3" fill="#1f77b4" />
<circle cx="198.23" cy="398.04" r="3" fill="#1f77b4" />
<circle cx="204.81" cy="402.51" r="3" fill="#1f77b4" />
<circle cx="211.39" cy="404.69" r="3" fill="#1f77b4" />
<circle cx="217.97" cy="407.10" r="3" fill="#1f77b4" />
<circle cx="224.56" cy="408.55" r="3" fill="#1f77b4" />
<circle cx="231.14" cy="412.98" r="3" fill="#1f77b4" />
<circle cx="237.72" cy="414.78" r="3" fill="#1f77b4" />
<circle cx="244.30" cy="417.34" r="3" fill="#1f77b4" />
<circle cx="250.89" cy="417.72" r="3" fill="#1f77b4" />
<circle cx="257.47" cy="418.25" r="3" fill="#1f77b4" />
<circle cx="264.05" cy="420.00" r="3" fill="#1f77b4" />
<circle cx="270.63" cy="418.76" r="3" fill="#1f77b4" />
<circle cx="277.22" cy="419.46" r="3" fill="#1f77b4" />
<circle cx="283.80" cy="419.30" r="3" fill="#1f77b4" />
<circle cx="290.38" cy="418.34" r="3" fill="#1f77b4" />
<circle cx="296.96" cy="415.88" r="3" fill="#1f77b4" />
<circle cx="303.54" cy="417.90" r="3" fill="#1f77b4" />
<circle cx="310.13" cy="414.54" r="3" fill="#1f77b4" />
<circle cx="316.71" cy="411.60" r="3" fill="#1f77b4" />
<circle cx="323.29" cy="411.53" r="3" fill="#1f77b4" />
<circle cx="329.87" cy="408.00" r="3" fill="#1f77b4" />
<circle cx="336.46" cy="403.31" r="3" fill="#1f77b4" />
<circle cx="343.04" cy="401.04" r="3" fill="#1f77b4" />
<circle cx="349.62" cy="397.19" r="3" fill="#1f77b4" />
<circle cx="356.20" cy="393.94" r="3" fill="#1f77b4" />
<circle cx="362.78" cy="389.62" r="3" fill="#1f77b4" />
<circle cx="369.37" cy="384.64" r="3" fill="#1f77b4" />
<circle cx="375.95" cy="377.99" r="3" fill="#1f77b4" />
<circle cx="382.53" cy="374.14" r="3" fill="#1f77b4" />
<circle cx="389.11" cy="369.19" r="3" fill="#1f77b4" />
<circle cx="395.70" cy="363.82" r="3" fill="#1f77b4" />
<circle cx="402.28" cy="356.22" r="3" fill="#1f77b4" />
<circle cx="408.86" cy="349.35" r="3" fill="#1f77b4" />
<circle cx="415.44" cy="341.59" r="3" fill="#1f77b4" />
<circle cx="422.03" cy="334.33" r="3" fill="#1f77b4" />
<circle cx="428.61" cy="329.05" r="3" fill="#1f77b4" />
<circle cx="435.19" cy="320.24" r="3" fill="#1f77b4" />
<circle cx="441.77" cy="311.76" r="3" fill="#1f77b4" />
<circle cx="448.35" cy="301.91" r="3" fill="#1f77b4" />
<circle cx="454.94" cy="293.63" r="3" fill="#1f77b4" />
<circle cx="461.52" cy="284.47" r="3" fill="#1f77b4" />
<circle cx="468.10" cy="275.55" r="3" fill="#1f77b4" />
<circle cx="474.68" cy="265.99" r="3" fill="#1f77b4" />
<circle cx="481.27" cy="253.23" r="3" fill="#1f77b4" />
<circle cx="487.85" cy="243.33" r="3" fill="#1f77b4" />
<circle cx="494.43" cy="232.39" r="3" fill="#1f77b4" />
<circle cx="501.01" cy="222.26" r="3" fill="#1f77b4" />
<circle cx="507.59" cy="209.16" r="3" fill="#1f77b4" />
<circle cx="514.18" cy="197.55" r="3" fill="#1f77b4" />
<circle cx="520.76" cy="186.83" r="3" fill="#1f77b4" />
<circle cx="527.34" cy="173.18" r="3" fill="#1f77b4" />
<circle cx="533.92" cy="160.75" r="3" fill="#1f77b4" />
<circle cx="540.51" cy="147.04" r="3" fill="#1f77b4" />
<circle cx="547.09" cy="133.78" r="3" fill="#1f77b4" />
<circle cx="553.67" cy="120.50" r="3" fill="#1f77b4" />
<circle cx="560.25" cy="104.95" r="3" fill="#1f77b4" />
<circle cx="566.84" cy="90.27" r="3" fill="#1f77b4" />
<circle cx="573.42" cy="75.34" r="3" fill="#1f77b4" />
<circle cx="580.00" cy="60.00" r="3" fill="#1f77b4" />
</svg>